<?xml version="1.0" encoding="UTF-8"?><svg id="a" xmlns="http://www.w3.org/2000/svg" viewBox="0 0 100 100"><defs><style>.d{fill:#008b8b;}</style></defs><path class="d" d="M50,0C22.39,0,0,22.39,0,50s22.39,50,50,50,50-22.39,50-50S77.61,0,50,0Zm27.47,48.08c.35,.6,.53,1.29,.53,1.98v10.94c0,1.1-.9,2-2,2v6c0,1.1-.9,2-2,2h-4c-1.1,0-2-.9-2-2v-6H32v6c0,1.1-.9,2-2,2h-4c-1.1,0-2-.9-2-2v-6c-1.1,0-2-.9-2-2v-10.94c0-.69,.18-1.38,.53-1.98l4.05-7.08h-2.58c-1.1,0-2-.9-2-2s.9-2,2-2h4.86l3.42-5.98c.71-1.25,2.03-2.02,3.47-2.02h28.5c1.44,0,2.76,.77,3.47,2.02l3.42,5.98h4.86c1.1,0,2,.9,2,2s-.9,2-2,2h-2.58l4.05,7.08Z"/><path class="d" d="M70.54,43H29.46c-.76,0-1.25-.83-.87-1.5l.29-.5,1.12-1.96,4.02-7.03c.35-.62,1.02-1.01,1.73-1.01h28.5c.71,0,1.38,.39,1.73,1.01l4.02,7.03,1.12,1.96,.29,.5c.38,.67-.11,1.5-.87,1.5Z"/><path class="d" d="M58,57c0,.55-.22,1.05-.59,1.41-.36,.37-.86,.59-1.41,.59h-12c-1.1,0-2-.9-2-2,0-.55,.22-1.05,.59-1.41,.36-.37,.86-.59,1.41-.59h12c1.1,0,2,.9,2,2Z"/><circle class="d" cx="68" cy="50" r="4"/><circle class="d" cx="32" cy="50" r="4"/></svg>