<?xml version="1.0" encoding="UTF-8"?><svg id="b" xmlns="http://www.w3.org/2000/svg" viewBox="0 0 100 100"><defs><style>.d{fill:#008b8b;}</style></defs><path class="d" d="M50,0C22.39,0,0,22.39,0,50s22.39,50,50,50,50-22.39,50-50S77.61,0,50,0Zm-4,44c0,2.21-1.79,4-4,4h-4v37c0,.55-.45,1-1,1h-2c-.55,0-1-.45-1-1V48h-4c-2.21,0-4-1.79-4-4V17c0-.55,.45-1,1-1h2c.55,0,1,.45,1,1v18c0,.55,.45,1,1,1h2c.55,0,1-.45,1-1V17c0-.55,.45-1,1-1h2c.55,0,1,.45,1,1v18c0,.55,.45,1,1,1h2c.55,0,1-.45,1-1V17c0-.55,.45-1,1-1h2c.55,0,1,.45,1,1v27Zm21,41c0,.55-.45,1-1,1h-2c-.55,0-1-.45-1-1v-25h-2c-2.21,0-4-1.79-4-4V24c0-4.42,3.58-8,8-8h2V85Z"/></svg>