<?xml version="1.0" encoding="UTF-8"?><svg id="c" xmlns="http://www.w3.org/2000/svg" viewBox="0 0 100 100"><defs><style>.d{fill:#008b8b;}</style></defs><path class="d" d="M50,0C22.39,0,0,22.39,0,50s22.39,50,50,50,50-22.39,50-50S77.61,0,50,0Zm12,74h-24l-8-38h40l-8,38Zm8-42H30v-4h16v-2c0-1.1,.9-2,2-2h4c1.1,0,2,.9,2,2v2h16v4Z"/><polygon class="d" points="65.16 40 58.84 70 54.84 70 61.16 40 65.16 40"/><polygon class="d" points="45.16 70 41.16 70 34.84 40 38.84 40 45.16 70"/><rect class="d" x="48" y="40" width="4" height="30"/></svg>